<svg width="8" height="8" viewBox="0 0 8 8" fill="none" xmlns="http://www.w3.org/2000/svg">
<path d="M7.36536 0.696533C6.95123 0.247375 6.383 0 5.7652 0C5.30341 0 4.88049 0.145996 4.50818 0.433899C4.32031 0.579224 4.15009 0.757019 4 0.964539C3.84998 0.75708 3.67969 0.579224 3.49176 0.433899C3.11951 0.145996 2.69659 0 2.2348 0C1.617 0 1.04871 0.247375 0.634583 0.696533C0.225403 1.14044 0 1.74689 0 2.40424C0 3.08081 0.252136 3.70013 0.793457 4.35333C1.27771 4.93762 1.97369 5.53076 2.77966 6.21759C3.05487 6.45215 3.36682 6.71802 3.69073 7.00122C3.77631 7.07617 3.88611 7.11743 4 7.11743C4.11383 7.11743 4.22369 7.07617 4.30914 7.00134C4.63306 6.71808 4.94519 6.45209 5.22052 6.21741C6.02637 5.5307 6.72235 4.93762 7.2066 4.35327C7.74792 3.70013 8 3.08081 8 2.40417C8 1.74689 7.7746 1.14044 7.36536 0.696533Z" fill="#D81D56"/>
</svg>
